<?xml version="1.0" encoding="UTF-8"?>
<svg xmlns="http://www.w3.org/2000/svg" xmlns:xlink="http://www.w3.org/1999/xlink" width="96pt" height="96pt" viewBox="0 0 96 96" version="1.1">
<g id="surface1">
<path style=" stroke:none;fill-rule:nonzero;fill:rgb(74.509804%,74.509804%,74.509804%);fill-opacity:1;" d="M 48 0 L 42 18 L 54 18 Z M 14.0625 14.0625 L 22.5 30.9375 L 30.9375 22.5 Z M 81.9375 14.0625 L 65.0625 22.5 L 73.5 30.9375 Z M 48 24 C 34.746094 24 24 34.746094 24 48 C 24 61.253906 34.746094 72 48 72 C 61.253906 72 72 61.253906 72 48 C 72 34.746094 61.253906 24 48 24 Z M 48 33 C 56.285156 33 63 39.714844 63 48 C 63 56.285156 56.285156 63 48 63 C 39.714844 63 33 56.285156 33 48 C 33 39.714844 39.714844 33 48 33 Z M 18 42 L 0 48 L 18 54 Z M 78 42 L 78 54 L 96 48 Z M 22.5 65.0625 L 14.0625 81.9375 L 30.9375 73.5 Z M 73.5 65.0625 L 65.0625 73.5 L 81.9375 81.9375 Z M 42 78 L 48 96 L 54 78 Z M 42 78 "/>
</g>
</svg>
